# This file uses centimeters as units for non-parametric coordinates.

mtllib Mattress01.mtl
g default
v -2.500000 -1.000000 7.500000
v -2.235969 -1.000000 7.500000
v 2.235969 -1.000000 7.500000
v 2.500000 -1.000000 7.500000
v -2.500000 -0.333333 7.500000
v -2.235969 -0.333333 7.500000
v 2.235969 -0.333333 7.500000
v 2.500000 -0.333333 7.500000
v -2.500000 0.333333 7.500000
v -2.235969 0.333333 7.500000
v 2.235969 0.333333 7.500000
v 2.500000 0.333333 7.500000
v -2.500000 1.000000 7.500000
v -2.235969 1.000000 7.500000
v 2.235969 1.000000 7.500000
v 2.500000 1.000000 7.500000
v -2.500000 1.000000 4.500000
v -2.235969 1.000000 4.500000
v 2.235969 1.000000 4.500000
v 2.500000 1.000000 4.500000
v -2.500000 1.000000 1.500000
v -2.235969 1.000000 1.500000
v 2.235969 1.000000 1.500000
v 2.500000 1.000000 1.500000
v -2.500000 1.000000 -1.500000
v -2.235969 1.000000 -1.500000
v 2.235969 1.000000 -1.500000
v 2.500000 1.000000 -1.500000
v -2.500000 1.000000 -4.500000
v -2.235969 1.000000 -4.500000
v 2.235969 1.000000 -4.500000
v 2.500000 1.000000 -4.500000
v -2.500000 1.000000 -7.500000
v -2.235969 1.000000 -7.500000
v 2.235969 1.000000 -7.500000
v 2.500000 1.000000 -7.500000
v -2.500000 0.333333 -7.500000
v -2.235969 0.333333 -7.500000
v 2.235969 0.333333 -7.500000
v 2.500000 0.333333 -7.500000
v -2.500000 -0.333333 -7.500000
v -2.235969 -0.333333 -7.500000
v 2.235969 -0.333333 -7.500000
v 2.500000 -0.333333 -7.500000
v -2.500000 -1.000000 -7.500000
v -2.235969 -1.000000 -7.500000
v 2.235969 -1.000000 -7.500000
v 2.500000 -1.000000 -7.500000
v -2.500000 -1.000000 -4.500000
v -2.235969 -1.000000 -4.500000
v 2.235969 -1.000000 -4.500000
v 2.500000 -1.000000 -4.500000
v -2.500000 -1.000000 -1.500000
v -2.235969 -1.000000 -1.500000
v 2.235969 -1.000000 -1.500000
v 2.500000 -1.000000 -1.500000
v -2.500000 -1.000000 1.500000
v -2.235969 -1.000000 1.500000
v 2.235969 -1.000000 1.500000
v 2.500000 -1.000000 1.500000
v -2.500000 -1.000000 4.500000
v -2.235969 -1.000000 4.500000
v 2.235969 -1.000000 4.500000
v 2.500000 -1.000000 4.500000
v 2.500000 -0.333333 -4.500000
v 2.500000 -0.333333 -1.500000
v 2.500000 -0.333333 1.500000
v 2.500000 -0.333333 4.500000
v 2.500000 0.333333 -4.500000
v 2.500000 0.333333 -1.500000
v 2.500000 0.333333 1.500000
v 2.500000 0.333333 4.500000
v -2.500000 -0.333333 -4.500000
v -2.500000 -0.333333 -1.500000
v -2.500000 -0.333333 1.500000
v -2.500000 -0.333333 4.500000
v -2.500000 0.333333 -4.500000
v -2.500000 0.333333 -1.500000
v -2.500000 0.333333 1.500000
v -2.500000 0.333333 4.500000
vt 0.871420 0.302810
vt 0.871420 0.286915
vt 0.911554 0.286915
vt 0.911554 0.302810
vt 0.871420 0.017701
vt 0.911554 0.017701
vt 0.951687 0.286915
vt 0.951687 0.302810
vt 0.871420 0.001806
vt 0.911554 0.001806
vt 0.951687 0.017701
vt 0.991821 0.286915
vt 0.991821 0.302810
vt 0.951687 0.001806
vt 0.991821 0.017701
vt 0.991821 0.001806
vt 0.001992 0.001806
vt 0.017887 0.001806
vt 0.017887 0.182408
vt 0.001992 0.182408
vt 0.287101 0.001806
vt 0.287101 0.182408
vt 0.017887 0.363010
vt 0.001992 0.363010
vt 0.302996 0.001806
vt 0.302996 0.182408
vt 0.287101 0.363010
vt 0.017887 0.543613
vt 0.001992 0.543613
vt 0.302996 0.363010
vt 0.287101 0.543613
vt 0.017887 0.724214
vt 0.001992 0.724214
vt 0.302996 0.543613
vt 0.287101 0.724214
vt 0.017887 0.904817
vt 0.001992 0.904817
vt 0.302996 0.724214
vt 0.287101 0.904817
vt 0.302996 0.904817
vt 0.877606 0.607804
vt 0.877606 0.591910
vt 0.917740 0.591910
vt 0.917740 0.607804
vt 0.877606 0.322695
vt 0.917740 0.322695
vt 0.957874 0.591910
vt 0.957874 0.607804
vt 0.877606 0.306801
vt 0.917740 0.306801
vt 0.957874 0.322695
vt 0.998008 0.591910
vt 0.998008 0.607804
vt 0.957874 0.306801
vt 0.998008 0.322695
vt 0.998008 0.306801
vt 0.310122 0.001806
vt 0.326016 0.001806
vt 0.326016 0.182408
vt 0.310122 0.182408
vt 0.595230 0.001806
vt 0.595230 0.182408
vt 0.326016 0.363010
vt 0.310122 0.363010
vt 0.611125 0.001806
vt 0.611125 0.182408
vt 0.595230 0.363010
vt 0.326016 0.543612
vt 0.310122 0.543612
vt 0.611125 0.363010
vt 0.595230 0.543612
vt 0.326016 0.724215
vt 0.310122 0.724215
vt 0.611125 0.543612
vt 0.595230 0.724215
vt 0.326016 0.904817
vt 0.310122 0.904817
vt 0.611125 0.724215
vt 0.595230 0.904817
vt 0.611125 0.904817
vt 0.618056 0.182408
vt 0.618056 0.001806
vt 0.658189 0.001806
vt 0.658189 0.182408
vt 0.698323 0.001806
vt 0.698323 0.182408
vt 0.618056 0.363010
vt 0.658189 0.363010
vt 0.738457 0.001806
vt 0.738457 0.182408
vt 0.698323 0.363010
vt 0.618056 0.543613
vt 0.658189 0.543613
vt 0.738457 0.363010
vt 0.698323 0.543613
vt 0.618056 0.724214
vt 0.658189 0.724214
vt 0.738457 0.543613
vt 0.698323 0.724214
vt 0.618056 0.904817
vt 0.658189 0.904817
vt 0.738457 0.724214
vt 0.698323 0.904817
vt 0.738457 0.904817
vt 0.744738 0.904817
vt 0.744738 0.724215
vt 0.784871 0.724215
vt 0.784871 0.904817
vt 0.744738 0.543613
vt 0.784871 0.543613
vt 0.825005 0.724215
vt 0.825005 0.904817
vt 0.744738 0.363010
vt 0.784871 0.363010
vt 0.825005 0.543613
vt 0.865139 0.724215
vt 0.865139 0.904817
vt 0.744738 0.182408
vt 0.784871 0.182408
vt 0.825005 0.363010
vt 0.865139 0.543613
vt 0.744738 0.001806
vt 0.784871 0.001806
vt 0.825005 0.182408
vt 0.865139 0.363010
vt 0.825005 0.001806
vt 0.865139 0.182408
vt 0.865139 0.001806
vn 0.000000 0.000000 1.000000
vn 0.000000 0.000000 1.000000
vn 0.000000 0.000000 1.000000
vn 0.000000 0.000000 1.000000
vn 0.000000 0.000000 1.000000
vn 0.000000 0.000000 1.000000
vn 0.000000 0.000000 1.000000
vn 0.000000 0.000000 1.000000
vn 0.000000 0.000000 1.000000
vn 0.000000 0.000000 1.000000
vn 0.000000 0.000000 1.000000
vn 0.000000 0.000000 1.000000
vn 0.000000 0.000000 1.000000
vn 0.000000 0.000000 1.000000
vn 0.000000 0.000000 1.000000
vn 0.000000 0.000000 1.000000
vn 0.000000 1.000000 0.000000
vn 0.000000 1.000000 0.000000
vn 0.000000 1.000000 0.000000
vn 0.000000 1.000000 0.000000
vn 0.000000 1.000000 0.000000
vn 0.000000 1.000000 0.000000
vn 0.000000 1.000000 0.000000
vn 0.000000 1.000000 0.000000
vn 0.000000 1.000000 0.000000
vn 0.000000 1.000000 0.000000
vn 0.000000 1.000000 0.000000
vn 0.000000 1.000000 0.000000
vn 0.000000 1.000000 0.000000
vn 0.000000 1.000000 0.000000
vn 0.000000 1.000000 0.000000
vn 0.000000 1.000000 0.000000
vn 0.000000 1.000000 0.000000
vn 0.000000 1.000000 0.000000
vn 0.000000 1.000000 0.000000
vn 0.000000 1.000000 0.000000
vn 0.000000 1.000000 0.000000
vn 0.000000 1.000000 0.000000
vn 0.000000 1.000000 0.000000
vn 0.000000 1.000000 0.000000
vn 0.000000 0.000000 -1.000000
vn 0.000000 0.000000 -1.000000
vn 0.000000 0.000000 -1.000000
vn 0.000000 0.000000 -1.000000
vn 0.000000 0.000000 -1.000000
vn 0.000000 0.000000 -1.000000
vn 0.000000 0.000000 -1.000000
vn 0.000000 0.000000 -1.000000
vn 0.000000 0.000000 -1.000000
vn 0.000000 0.000000 -1.000000
vn 0.000000 0.000000 -1.000000
vn 0.000000 0.000000 -1.000000
vn 0.000000 0.000000 -1.000000
vn 0.000000 0.000000 -1.000000
vn 0.000000 0.000000 -1.000000
vn 0.000000 0.000000 -1.000000
vn 0.000000 -1.000000 0.000000
vn 0.000000 -1.000000 0.000000
vn 0.000000 -1.000000 0.000000
vn 0.000000 -1.000000 0.000000
vn 0.000000 -1.000000 0.000000
vn 0.000000 -1.000000 0.000000
vn 0.000000 -1.000000 0.000000
vn 0.000000 -1.000000 0.000000
vn 0.000000 -1.000000 0.000000
vn 0.000000 -1.000000 0.000000
vn 0.000000 -1.000000 0.000000
vn 0.000000 -1.000000 0.000000
vn 0.000000 -1.000000 0.000000
vn 0.000000 -1.000000 0.000000
vn 0.000000 -1.000000 0.000000
vn 0.000000 -1.000000 0.000000
vn 0.000000 -1.000000 0.000000
vn 0.000000 -1.000000 0.000000
vn 0.000000 -1.000000 0.000000
vn 0.000000 -1.000000 0.000000
vn 0.000000 -1.000000 0.000000
vn 0.000000 -1.000000 0.000000
vn 0.000000 -1.000000 0.000000
vn 0.000000 -1.000000 0.000000
vn 1.000000 0.000000 0.000000
vn 1.000000 0.000000 0.000000
vn 1.000000 0.000000 0.000000
vn 1.000000 0.000000 0.000000
vn 1.000000 0.000000 0.000000
vn 1.000000 0.000000 0.000000
vn 1.000000 0.000000 0.000000
vn 1.000000 0.000000 0.000000
vn 1.000000 0.000000 0.000000
vn 1.000000 0.000000 0.000000
vn 1.000000 0.000000 0.000000
vn 1.000000 0.000000 0.000000
vn 1.000000 0.000000 0.000000
vn 1.000000 0.000000 0.000000
vn 1.000000 0.000000 0.000000
vn 1.000000 0.000000 0.000000
vn 1.000000 0.000000 0.000000
vn 1.000000 0.000000 0.000000
vn 1.000000 0.000000 0.000000
vn 1.000000 0.000000 0.000000
vn 1.000000 0.000000 0.000000
vn 1.000000 0.000000 0.000000
vn 1.000000 0.000000 0.000000
vn 1.000000 0.000000 0.000000
vn -1.000000 0.000000 0.000000
vn -1.000000 0.000000 0.000000
vn -1.000000 0.000000 0.000000
vn -1.000000 0.000000 0.000000
vn -1.000000 0.000000 0.000000
vn -1.000000 0.000000 0.000000
vn -1.000000 0.000000 0.000000
vn -1.000000 0.000000 0.000000
vn -1.000000 0.000000 0.000000
vn -1.000000 0.000000 0.000000
vn -1.000000 0.000000 0.000000
vn -1.000000 0.000000 0.000000
vn -1.000000 0.000000 0.000000
vn -1.000000 0.000000 0.000000
vn -1.000000 0.000000 0.000000
vn -1.000000 0.000000 0.000000
vn -1.000000 0.000000 0.000000
vn -1.000000 0.000000 0.000000
vn -1.000000 0.000000 0.000000
vn -1.000000 0.000000 0.000000
vn -1.000000 0.000000 0.000000
vn -1.000000 0.000000 0.000000
vn -1.000000 0.000000 0.000000
vn -1.000000 0.000000 0.000000
s 1
g pCube49
usemtl lambert12SG
f 1/1/1 2/2/2 6/3/3 5/4/4
f 2/2/2 3/5/5 7/6/6 6/3/3
f 3/5/5 4/9/7 8/10/8 7/6/6
f 5/4/4 6/3/3 10/7/9 9/8/10
f 6/3/3 7/6/6 11/11/11 10/7/9
f 7/6/6 8/10/8 12/14/12 11/11/11
f 9/8/10 10/7/9 14/12/13 13/13/14
f 10/7/9 11/11/11 15/15/15 14/12/13
f 11/11/11 12/14/12 16/16/16 15/15/15
s 2
f 13/17/17 14/18/18 18/19/19 17/20/20
f 14/18/18 15/21/21 19/22/22 18/19/19
f 15/21/21 16/25/23 20/26/24 19/22/22
f 17/20/20 18/19/19 22/23/25 21/24/26
f 18/19/19 19/22/22 23/27/27 22/23/25
f 19/22/22 20/26/24 24/30/28 23/27/27
f 21/24/26 22/23/25 26/28/29 25/29/30
f 22/23/25 23/27/27 27/31/31 26/28/29
f 23/27/27 24/30/28 28/34/32 27/31/31
f 25/29/30 26/28/29 30/32/33 29/33/34
f 26/28/29 27/31/31 31/35/35 30/32/33
f 27/31/31 28/34/32 32/38/36 31/35/35
f 29/33/34 30/32/33 34/36/37 33/37/38
f 30/32/33 31/35/35 35/39/39 34/36/37
f 31/35/35 32/38/36 36/40/40 35/39/39
s 3
f 33/41/41 34/42/42 38/43/43 37/44/44
f 34/42/42 35/45/45 39/46/46 38/43/43
f 35/45/45 36/49/47 40/50/48 39/46/46
f 37/44/44 38/43/43 42/47/49 41/48/50
f 38/43/43 39/46/46 43/51/51 42/47/49
f 39/46/46 40/50/48 44/54/52 43/51/51
f 41/48/50 42/47/49 46/52/53 45/53/54
f 42/47/49 43/51/51 47/55/55 46/52/53
f 43/51/51 44/54/52 48/56/56 47/55/55
s 4
f 45/57/57 46/58/58 50/59/59 49/60/60
f 46/58/58 47/61/61 51/62/62 50/59/59
f 47/61/61 48/65/63 52/66/64 51/62/62
f 49/60/60 50/59/59 54/63/65 53/64/66
f 50/59/59 51/62/62 55/67/67 54/63/65
f 51/62/62 52/66/64 56/70/68 55/67/67
f 53/64/66 54/63/65 58/68/69 57/69/70
f 54/63/65 55/67/67 59/71/71 58/68/69
f 55/67/67 56/70/68 60/74/72 59/71/71
f 57/69/70 58/68/69 62/72/73 61/73/74
f 58/68/69 59/71/71 63/75/75 62/72/73
f 59/71/71 60/74/72 64/78/76 63/75/75
f 61/73/74 62/72/73 2/76/77 1/77/78
f 62/72/73 63/75/75 3/79/79 2/76/77
f 63/75/75 64/78/76 4/80/80 3/79/79
s 5
f 52/81/81 48/82/82 44/83/83 65/84/84
f 56/87/85 52/81/81 65/84/84 66/88/86
f 60/92/87 56/87/85 66/88/86 67/93/88
f 64/96/89 60/92/87 67/93/88 68/97/90
f 4/100/91 64/96/89 68/97/90 8/101/92
f 65/84/84 44/83/83 40/85/93 69/86/94
f 66/88/86 65/84/84 69/86/94 70/91/95
f 67/93/88 66/88/86 70/91/95 71/95/96
f 68/97/90 67/93/88 71/95/96 72/99/97
f 8/101/92 68/97/90 72/99/97 12/103/98
f 69/86/94 40/85/93 36/89/99 32/90/100
f 70/91/95 69/86/94 32/90/100 28/94/101
f 71/95/96 70/91/95 28/94/101 24/98/102
f 72/99/97 71/95/96 24/98/102 20/102/103
f 12/103/98 72/99/97 20/102/103 16/104/104
s 6
f 45/105/105 49/106/106 73/107/107 41/108/108
f 49/106/106 53/109/109 74/110/110 73/107/107
f 53/109/109 57/113/111 75/114/112 74/110/110
f 57/113/111 61/118/113 76/119/114 75/114/112
f 61/118/113 1/122/115 5/123/116 76/119/114
f 41/108/108 73/107/107 77/111/117 37/112/118
f 73/107/107 74/110/110 78/115/119 77/111/117
f 74/110/110 75/114/112 79/120/120 78/115/119
f 75/114/112 76/119/114 80/124/121 79/120/120
f 76/119/114 5/123/116 9/126/122 80/124/121
f 37/112/118 77/111/117 29/116/123 33/117/124
f 77/111/117 78/115/119 25/121/125 29/116/123
f 78/115/119 79/120/120 21/125/126 25/121/125
f 79/120/120 80/124/121 17/127/127 21/125/126
f 80/124/121 9/126/122 13/128/128 17/127/127
